<mxfile host="app.diagrams.net" modified="2022-03-11T02:44:20.887Z" agent="5.0 (Macintosh; Intel Mac OS X 10_15_7) AppleWebKit/537.36 (KHTML, like Gecko) Chrome/98.0.4758.102 Safari/537.36" etag="QK6qCBa0oQL2YXIq4yb_" version="17.1.0" type="github">
  <diagram id="TKP_l_NkvEUhYhY9nVAE" name="Page-1">
    <mxGraphModel dx="2175" dy="1140" grid="1" gridSize="10" guides="1" tooltips="1" connect="1" arrows="1" fold="1" page="1" pageScale="1" pageWidth="827" pageHeight="1169" math="0" shadow="0">
      <root>
        <mxCell id="0" />
        <mxCell id="1" parent="0" />
        <mxCell id="2QZp9TgIWVi5iaSMI0KW-8" value="" style="edgeStyle=orthogonalEdgeStyle;rounded=0;orthogonalLoop=1;jettySize=auto;html=1;" edge="1" parent="1" source="2QZp9TgIWVi5iaSMI0KW-6" target="2QZp9TgIWVi5iaSMI0KW-7">
          <mxGeometry relative="1" as="geometry" />
        </mxCell>
        <mxCell id="2QZp9TgIWVi5iaSMI0KW-13" value="" style="edgeStyle=orthogonalEdgeStyle;rounded=0;orthogonalLoop=1;jettySize=auto;html=1;" edge="1" parent="1" source="2QZp9TgIWVi5iaSMI0KW-7" target="2QZp9TgIWVi5iaSMI0KW-12">
          <mxGeometry relative="1" as="geometry" />
        </mxCell>
        <mxCell id="2QZp9TgIWVi5iaSMI0KW-14" value="" style="rounded=0;whiteSpace=wrap;html=1;" vertex="1" parent="1">
          <mxGeometry x="424" y="280" width="120" height="280" as="geometry" />
        </mxCell>
        <mxCell id="2QZp9TgIWVi5iaSMI0KW-12" value="httpServer" style="whiteSpace=wrap;html=1;rounded=0;fillColor=#dae8fc;strokeColor=#6c8ebf;" vertex="1" parent="1">
          <mxGeometry x="424" y="280" width="120" height="60" as="geometry" />
        </mxCell>
        <mxCell id="2QZp9TgIWVi5iaSMI0KW-15" style="edgeStyle=orthogonalEdgeStyle;rounded=0;orthogonalLoop=1;jettySize=auto;html=1;exitX=0.5;exitY=1;exitDx=0;exitDy=0;" edge="1" parent="1" source="2QZp9TgIWVi5iaSMI0KW-12" target="2QZp9TgIWVi5iaSMI0KW-12">
          <mxGeometry relative="1" as="geometry" />
        </mxCell>
        <mxCell id="2QZp9TgIWVi5iaSMI0KW-18" value="" style="edgeStyle=orthogonalEdgeStyle;rounded=0;orthogonalLoop=1;jettySize=auto;html=1;" edge="1" parent="1" source="2QZp9TgIWVi5iaSMI0KW-16" target="2QZp9TgIWVi5iaSMI0KW-17">
          <mxGeometry relative="1" as="geometry" />
        </mxCell>
        <mxCell id="2QZp9TgIWVi5iaSMI0KW-16" value="assign" style="rounded=0;whiteSpace=wrap;html=1;" vertex="1" parent="1">
          <mxGeometry x="424" y="350" width="120" height="60" as="geometry" />
        </mxCell>
        <mxCell id="2QZp9TgIWVi5iaSMI0KW-17" value="MasterServer.&lt;br&gt;dirAssignHandler()" style="whiteSpace=wrap;html=1;rounded=0;fillColor=#f8cecc;strokeColor=#b85450;gradientColor=none;" vertex="1" parent="1">
          <mxGeometry x="609" y="340" width="120" height="60" as="geometry" />
        </mxCell>
        <mxCell id="2QZp9TgIWVi5iaSMI0KW-21" value="" style="rounded=0;whiteSpace=wrap;html=1;" vertex="1" parent="1">
          <mxGeometry x="234" y="210" width="120" height="280" as="geometry" />
        </mxCell>
        <mxCell id="2QZp9TgIWVi5iaSMI0KW-7" value="Run:&lt;br&gt;runMaster()" style="whiteSpace=wrap;html=1;rounded=0;fillColor=#f8cecc;strokeColor=#b85450;" vertex="1" parent="1">
          <mxGeometry x="234" y="280" width="120" height="60" as="geometry" />
        </mxCell>
        <mxCell id="2QZp9TgIWVi5iaSMI0KW-22" value="cmdMaster" style="rounded=0;whiteSpace=wrap;html=1;fillColor=#e1d5e7;strokeColor=#9673a6;" vertex="1" parent="1">
          <mxGeometry x="234" y="210" width="120" height="60" as="geometry" />
        </mxCell>
        <mxCell id="2QZp9TgIWVi5iaSMI0KW-24" value="函数" style="rounded=0;whiteSpace=wrap;html=1;fillColor=#f8cecc;strokeColor=#b85450;" vertex="1" parent="1">
          <mxGeometry x="24" y="10" width="120" height="60" as="geometry" />
        </mxCell>
        <mxCell id="2QZp9TgIWVi5iaSMI0KW-25" value="结构体" style="rounded=0;whiteSpace=wrap;html=1;fillColor=#e1d5e7;strokeColor=#9673a6;" vertex="1" parent="1">
          <mxGeometry x="144" y="10" width="120" height="60" as="geometry" />
        </mxCell>
        <mxCell id="2QZp9TgIWVi5iaSMI0KW-26" value="过程" style="rounded=0;whiteSpace=wrap;html=1;fillColor=#dae8fc;strokeColor=#6c8ebf;" vertex="1" parent="1">
          <mxGeometry x="264" y="10" width="120" height="60" as="geometry" />
        </mxCell>
        <mxCell id="2QZp9TgIWVi5iaSMI0KW-33" style="edgeStyle=orthogonalEdgeStyle;rounded=0;orthogonalLoop=1;jettySize=auto;html=1;exitX=1;exitY=0.5;exitDx=0;exitDy=0;entryX=0;entryY=0.5;entryDx=0;entryDy=0;" edge="1" parent="1" source="2QZp9TgIWVi5iaSMI0KW-29" target="2QZp9TgIWVi5iaSMI0KW-31">
          <mxGeometry relative="1" as="geometry" />
        </mxCell>
        <mxCell id="2QZp9TgIWVi5iaSMI0KW-30" value="" style="rounded=0;whiteSpace=wrap;html=1;" vertex="1" parent="1">
          <mxGeometry x="234" y="520" width="120" height="280" as="geometry" />
        </mxCell>
        <mxCell id="2QZp9TgIWVi5iaSMI0KW-37" value="" style="edgeStyle=orthogonalEdgeStyle;rounded=0;orthogonalLoop=1;jettySize=auto;html=1;" edge="1" parent="1" source="2QZp9TgIWVi5iaSMI0KW-31" target="2QZp9TgIWVi5iaSMI0KW-36">
          <mxGeometry relative="1" as="geometry" />
        </mxCell>
        <mxCell id="2QZp9TgIWVi5iaSMI0KW-31" value="Run:&lt;br&gt;runVolume()" style="whiteSpace=wrap;html=1;rounded=0;fillColor=#f8cecc;strokeColor=#b85450;" vertex="1" parent="1">
          <mxGeometry x="234" y="590" width="120" height="60" as="geometry" />
        </mxCell>
        <mxCell id="2QZp9TgIWVi5iaSMI0KW-32" value="cmdVolume" style="rounded=0;whiteSpace=wrap;html=1;fillColor=#e1d5e7;strokeColor=#9673a6;" vertex="1" parent="1">
          <mxGeometry x="234" y="520" width="120" height="60" as="geometry" />
        </mxCell>
        <mxCell id="2QZp9TgIWVi5iaSMI0KW-35" value="" style="rounded=0;whiteSpace=wrap;html=1;gradientColor=none;" vertex="1" parent="1">
          <mxGeometry x="2530" y="2930" width="120" height="60" as="geometry" />
        </mxCell>
        <mxCell id="2QZp9TgIWVi5iaSMI0KW-40" value="" style="edgeStyle=orthogonalEdgeStyle;rounded=0;orthogonalLoop=1;jettySize=auto;html=1;" edge="1" parent="1" source="2QZp9TgIWVi5iaSMI0KW-36" target="2QZp9TgIWVi5iaSMI0KW-39">
          <mxGeometry relative="1" as="geometry" />
        </mxCell>
        <mxCell id="2QZp9TgIWVi5iaSMI0KW-36" value="startVolumeServer" style="whiteSpace=wrap;html=1;rounded=0;fillColor=#f8cecc;strokeColor=#b85450;" vertex="1" parent="1">
          <mxGeometry x="434" y="590" width="120" height="60" as="geometry" />
        </mxCell>
        <mxCell id="2QZp9TgIWVi5iaSMI0KW-38" value="" style="group" vertex="1" connectable="0" parent="1">
          <mxGeometry x="24" y="180" width="120" height="450" as="geometry" />
        </mxCell>
        <mxCell id="2QZp9TgIWVi5iaSMI0KW-1" value="" style="rounded=0;whiteSpace=wrap;html=1;" vertex="1" parent="2QZp9TgIWVi5iaSMI0KW-38">
          <mxGeometry width="120" height="450" as="geometry" />
        </mxCell>
        <mxCell id="2QZp9TgIWVi5iaSMI0KW-2" value="main()" style="rounded=0;whiteSpace=wrap;html=1;fillColor=#f8cecc;strokeColor=#b85450;" vertex="1" parent="2QZp9TgIWVi5iaSMI0KW-38">
          <mxGeometry width="120" height="60" as="geometry" />
        </mxCell>
        <mxCell id="2QZp9TgIWVi5iaSMI0KW-4" value="help" style="rounded=0;whiteSpace=wrap;html=1;fillColor=#dae8fc;strokeColor=#6c8ebf;" vertex="1" parent="2QZp9TgIWVi5iaSMI0KW-38">
          <mxGeometry y="70" width="120" height="60" as="geometry" />
        </mxCell>
        <mxCell id="2QZp9TgIWVi5iaSMI0KW-6" value="master" style="rounded=0;whiteSpace=wrap;html=1;fillColor=#dae8fc;strokeColor=#6c8ebf;" vertex="1" parent="2QZp9TgIWVi5iaSMI0KW-38">
          <mxGeometry y="125" width="120" height="60" as="geometry" />
        </mxCell>
        <mxCell id="2QZp9TgIWVi5iaSMI0KW-29" value="volume" style="rounded=0;whiteSpace=wrap;html=1;fillColor=#dae8fc;strokeColor=#6c8ebf;" vertex="1" parent="2QZp9TgIWVi5iaSMI0KW-38">
          <mxGeometry y="185" width="120" height="60" as="geometry" />
        </mxCell>
        <mxCell id="2QZp9TgIWVi5iaSMI0KW-41" value="" style="rounded=0;whiteSpace=wrap;html=1;gradientColor=none;" vertex="1" parent="1">
          <mxGeometry x="634" y="590" width="120" height="310" as="geometry" />
        </mxCell>
        <mxCell id="2QZp9TgIWVi5iaSMI0KW-39" value="NewVolumeServer" style="whiteSpace=wrap;html=1;rounded=0;fillColor=#f8cecc;strokeColor=#b85450;" vertex="1" parent="1">
          <mxGeometry x="634" y="590" width="120" height="60" as="geometry" />
        </mxCell>
        <mxCell id="2QZp9TgIWVi5iaSMI0KW-45" value="" style="edgeStyle=orthogonalEdgeStyle;rounded=0;orthogonalLoop=1;jettySize=auto;html=1;" edge="1" parent="1" source="2QZp9TgIWVi5iaSMI0KW-43" target="2QZp9TgIWVi5iaSMI0KW-44">
          <mxGeometry relative="1" as="geometry" />
        </mxCell>
        <mxCell id="2QZp9TgIWVi5iaSMI0KW-43" value="HandleFunc()" style="rounded=0;whiteSpace=wrap;html=1;fillColor=#f8cecc;strokeColor=#b85450;" vertex="1" parent="1">
          <mxGeometry x="634" y="690" width="120" height="60" as="geometry" />
        </mxCell>
        <mxCell id="2QZp9TgIWVi5iaSMI0KW-46" value="" style="rounded=0;whiteSpace=wrap;html=1;fontSize=11;gradientColor=none;" vertex="1" parent="1">
          <mxGeometry x="834" y="690" width="136" height="390" as="geometry" />
        </mxCell>
        <mxCell id="2QZp9TgIWVi5iaSMI0KW-44" value="&lt;font style=&quot;font-size: 11px&quot;&gt;HandleFunc&lt;br style=&quot;font-size: 11px&quot;&gt;(&quot;/&quot;,&lt;br&gt;vs.privateStoreHandler))&lt;/font&gt;" style="rounded=0;whiteSpace=wrap;html=1;fillColor=#f8cecc;strokeColor=#b85450;align=center;verticalAlign=middle;" vertex="1" parent="1">
          <mxGeometry x="834" y="690" width="136" height="60" as="geometry" />
        </mxCell>
        <mxCell id="2QZp9TgIWVi5iaSMI0KW-55" style="edgeStyle=orthogonalEdgeStyle;rounded=0;orthogonalLoop=1;jettySize=auto;html=1;exitX=1;exitY=0.5;exitDx=0;exitDy=0;entryX=0;entryY=0.5;entryDx=0;entryDy=0;fontSize=11;" edge="1" parent="1" source="2QZp9TgIWVi5iaSMI0KW-47" target="2QZp9TgIWVi5iaSMI0KW-54">
          <mxGeometry relative="1" as="geometry" />
        </mxCell>
        <mxCell id="2QZp9TgIWVi5iaSMI0KW-47" value="Get,Head" style="rounded=0;whiteSpace=wrap;html=1;fontSize=11;fillColor=#dae8fc;strokeColor=#6c8ebf;" vertex="1" parent="1">
          <mxGeometry x="834" y="790" width="136" height="60" as="geometry" />
        </mxCell>
        <mxCell id="2QZp9TgIWVi5iaSMI0KW-48" value="DELETE" style="rounded=0;whiteSpace=wrap;html=1;fontSize=11;fillColor=#dae8fc;strokeColor=#6c8ebf;" vertex="1" parent="1">
          <mxGeometry x="834" y="850" width="136" height="60" as="geometry" />
        </mxCell>
        <mxCell id="2QZp9TgIWVi5iaSMI0KW-49" value="PUT,POST" style="rounded=0;whiteSpace=wrap;html=1;fontSize=11;fillColor=#dae8fc;strokeColor=#6c8ebf;" vertex="1" parent="1">
          <mxGeometry x="834" y="910" width="136" height="60" as="geometry" />
        </mxCell>
        <mxCell id="2QZp9TgIWVi5iaSMI0KW-56" value="" style="rounded=0;whiteSpace=wrap;html=1;fontSize=11;gradientColor=none;" vertex="1" parent="1">
          <mxGeometry x="1050" y="790" width="120" height="620" as="geometry" />
        </mxCell>
        <mxCell id="2QZp9TgIWVi5iaSMI0KW-54" value="GetOrHeadHandler()" style="rounded=0;whiteSpace=wrap;html=1;fontSize=11;fillColor=#f8cecc;strokeColor=#b85450;" vertex="1" parent="1">
          <mxGeometry x="1050" y="790" width="120" height="60" as="geometry" />
        </mxCell>
        <mxCell id="2QZp9TgIWVi5iaSMI0KW-57" value="Parse URL" style="rounded=0;whiteSpace=wrap;html=1;fontSize=11;fillColor=#dae8fc;strokeColor=#6c8ebf;" vertex="1" parent="1">
          <mxGeometry x="1050" y="880" width="120" height="60" as="geometry" />
        </mxCell>
        <mxCell id="2QZp9TgIWVi5iaSMI0KW-58" value="Has Volume?" style="rounded=0;whiteSpace=wrap;html=1;fontSize=11;fillColor=#dae8fc;strokeColor=#6c8ebf;" vertex="1" parent="1">
          <mxGeometry x="1050" y="940" width="120" height="60" as="geometry" />
        </mxCell>
        <mxCell id="2QZp9TgIWVi5iaSMI0KW-61" value="RETURN&lt;br&gt;NOT FOUND" style="rounded=0;whiteSpace=wrap;html=1;fontSize=11;fillColor=#d5e8d4;strokeColor=#82b366;" vertex="1" parent="1">
          <mxGeometry x="1390" y="880" width="120" height="60" as="geometry" />
        </mxCell>
        <mxCell id="2QZp9TgIWVi5iaSMI0KW-62" value="结果" style="rounded=0;whiteSpace=wrap;html=1;fontSize=11;fillColor=#d5e8d4;strokeColor=#82b366;" vertex="1" parent="1">
          <mxGeometry x="384" y="10" width="120" height="60" as="geometry" />
        </mxCell>
        <mxCell id="2QZp9TgIWVi5iaSMI0KW-65" value="" style="rounded=0;whiteSpace=wrap;html=1;fontSize=11;gradientColor=none;" vertex="1" parent="1">
          <mxGeometry x="1580" y="1010" width="120" height="210" as="geometry" />
        </mxCell>
        <mxCell id="2QZp9TgIWVi5iaSMI0KW-64" value="LookupVolumeIds()" style="rounded=0;whiteSpace=wrap;html=1;fontSize=11;fillColor=#f8cecc;strokeColor=#b85450;" vertex="1" parent="1">
          <mxGeometry x="1580" y="1010" width="120" height="60" as="geometry" />
        </mxCell>
        <mxCell id="2QZp9TgIWVi5iaSMI0KW-66" value="In Cache" style="rounded=0;whiteSpace=wrap;html=1;fontSize=11;fillColor=#dae8fc;strokeColor=#6c8ebf;" vertex="1" parent="1">
          <mxGeometry x="1580" y="1100" width="120" height="60" as="geometry" />
        </mxCell>
        <mxCell id="2QZp9TgIWVi5iaSMI0KW-77" style="edgeStyle=orthogonalEdgeStyle;rounded=0;orthogonalLoop=1;jettySize=auto;html=1;exitX=1;exitY=0.5;exitDx=0;exitDy=0;entryX=0;entryY=0.5;entryDx=0;entryDy=0;fontSize=11;" edge="1" parent="1" source="2QZp9TgIWVi5iaSMI0KW-67" target="2QZp9TgIWVi5iaSMI0KW-75">
          <mxGeometry relative="1" as="geometry" />
        </mxCell>
        <mxCell id="2QZp9TgIWVi5iaSMI0KW-67" value="Grp connect&lt;br&gt;To master" style="rounded=0;whiteSpace=wrap;html=1;fontSize=11;fillColor=#dae8fc;strokeColor=#6c8ebf;" vertex="1" parent="1">
          <mxGeometry x="1580" y="1160" width="120" height="60" as="geometry" />
        </mxCell>
        <mxCell id="2QZp9TgIWVi5iaSMI0KW-72" value="" style="group" vertex="1" connectable="0" parent="1">
          <mxGeometry x="1170.263157894737" y="970.5263157894738" as="geometry" />
        </mxCell>
        <mxCell id="2QZp9TgIWVi5iaSMI0KW-60" style="edgeStyle=orthogonalEdgeStyle;rounded=0;orthogonalLoop=1;jettySize=auto;html=1;exitX=1;exitY=0.5;exitDx=0;exitDy=0;fontSize=11;" edge="1" parent="2QZp9TgIWVi5iaSMI0KW-72" source="2QZp9TgIWVi5iaSMI0KW-58">
          <mxGeometry relative="1" as="geometry">
            <mxPoint as="targetPoint" />
          </mxGeometry>
        </mxCell>
        <mxCell id="2QZp9TgIWVi5iaSMI0KW-63" style="edgeStyle=orthogonalEdgeStyle;rounded=0;orthogonalLoop=1;jettySize=auto;html=1;exitX=1;exitY=0.5;exitDx=0;exitDy=0;entryX=0;entryY=0.5;entryDx=0;entryDy=0;fontSize=11;" edge="1" parent="2QZp9TgIWVi5iaSMI0KW-72" source="2QZp9TgIWVi5iaSMI0KW-58" target="2QZp9TgIWVi5iaSMI0KW-61">
          <mxGeometry relative="1" as="geometry" />
        </mxCell>
        <mxCell id="2QZp9TgIWVi5iaSMI0KW-70" value="local" style="edgeLabel;html=1;align=center;verticalAlign=middle;resizable=0;points=[];fontSize=11;" vertex="1" connectable="0" parent="2QZp9TgIWVi5iaSMI0KW-63">
          <mxGeometry x="0.6284" y="-1" relative="1" as="geometry">
            <mxPoint x="-8" y="-1" as="offset" />
          </mxGeometry>
        </mxCell>
        <mxCell id="2QZp9TgIWVi5iaSMI0KW-75" value="WithMaster&lt;br&gt;ServerClient()" style="rounded=0;whiteSpace=wrap;html=1;fontSize=11;fillColor=#f8cecc;strokeColor=#b85450;" vertex="1" parent="1">
          <mxGeometry x="1844" y="1160" width="120" height="60" as="geometry" />
        </mxCell>
        <mxCell id="2QZp9TgIWVi5iaSMI0KW-79" style="edgeStyle=orthogonalEdgeStyle;rounded=0;orthogonalLoop=1;jettySize=auto;html=1;exitX=1;exitY=0.5;exitDx=0;exitDy=0;entryX=0;entryY=0.5;entryDx=0;entryDy=0;fontSize=11;" edge="1" parent="1" source="2QZp9TgIWVi5iaSMI0KW-78" target="2QZp9TgIWVi5iaSMI0KW-64">
          <mxGeometry relative="1" as="geometry" />
        </mxCell>
        <mxCell id="2QZp9TgIWVi5iaSMI0KW-78" value="LookupVolumeId()" style="rounded=0;whiteSpace=wrap;html=1;fontSize=11;fillColor=#f8cecc;strokeColor=#b85450;" vertex="1" parent="1">
          <mxGeometry x="1390" y="1010" width="120" height="60" as="geometry" />
        </mxCell>
        <mxCell id="2QZp9TgIWVi5iaSMI0KW-68" style="edgeStyle=orthogonalEdgeStyle;rounded=0;orthogonalLoop=1;jettySize=auto;html=1;exitX=1;exitY=0.5;exitDx=0;exitDy=0;entryX=0;entryY=0.5;entryDx=0;entryDy=0;fontSize=11;" edge="1" parent="1" source="2QZp9TgIWVi5iaSMI0KW-58" target="2QZp9TgIWVi5iaSMI0KW-78">
          <mxGeometry relative="1" as="geometry" />
        </mxCell>
        <mxCell id="2QZp9TgIWVi5iaSMI0KW-69" value="!local" style="edgeLabel;html=1;align=center;verticalAlign=middle;resizable=0;points=[];fontSize=11;" vertex="1" connectable="0" parent="2QZp9TgIWVi5iaSMI0KW-68">
          <mxGeometry x="0.4743" y="-2" relative="1" as="geometry">
            <mxPoint x="16" y="-2" as="offset" />
          </mxGeometry>
        </mxCell>
        <mxCell id="2QZp9TgIWVi5iaSMI0KW-71" value="No" style="edgeLabel;html=1;align=center;verticalAlign=middle;resizable=0;points=[];fontSize=11;" vertex="1" connectable="0" parent="2QZp9TgIWVi5iaSMI0KW-68">
          <mxGeometry x="-0.7126" y="-1" relative="1" as="geometry">
            <mxPoint x="8" as="offset" />
          </mxGeometry>
        </mxCell>
      </root>
    </mxGraphModel>
  </diagram>
</mxfile>
